Coordinates
version=1
nRows=19
nColumns=24
inDegrees=yes

Units are S.I. units (second, meters, Newtons, ...)
Angles are in degrees.

endheader
time	pelvis_tilt	pelvis_list	pelvis_rotation	pelvis_tx	pelvis_ty	pelvis_tz	hip_flexion_r	hip_adduction_r	hip_rotation_r	knee_angle_r	ankle_angle_r	subtalar_angle_r	mtp_angle_r	hip_flexion_l	hip_adduction_l	hip_rotation_l	knee_angle_l	ankle_angle_l	subtalar_angle_l	mtp_angle_l	lumbar_extension	lumbar_bending	lumbar_rotation
      5.36500000	     34.82427474	     10.28433512	      8.61203971	     -0.21910137	      0.65311714	     -0.29887807	    -14.90620141	     -5.63187458	    -17.41868906	      2.46755243	     10.81666042	      4.22699905	      0.00000000	    -48.83128098	      1.78491283	      2.25214341	    -15.89709784	     25.87076032	     17.20512663	      0.00000000	    -64.26871035	     -1.37854505	    -11.41357158
      5.37000000	     35.00061273	     10.11295386	      8.66107553	     -0.21325432	      0.65290050	     -0.29866810	    -14.89339214	     -5.44915395	    -17.05947907	      1.51107641	     10.75854635	      4.12690126	      0.00000000	    -49.30242725	      1.43115112	      2.41661074	    -16.37651759	     25.50733090	     17.08897538	      0.00000000	    -64.35500466	     -1.13227208	    -11.31314764
      5.37500000	     35.09012860	      9.96009341	      8.77879106	     -0.20731589	      0.65276335	     -0.29843975	    -14.81645839	     -5.26991200	    -16.88348203	      0.49092754	     10.64463225	      4.16337974	      0.00000000	    -49.62289795	      1.04248978	      2.55598515	    -16.96858979	     25.04108643	     17.17278691	      0.00000000	    -64.34343095	     -0.85653617	    -11.33112711
      5.38000000	     35.36935610	      9.71536839	      8.85403809	     -0.20135981	      0.65273987	     -0.29820815	    -14.93770914	     -4.95229616	    -16.46988887	     -0.56331613	     10.37212479	      3.75504615	      0.00000000	    -50.11701800	      0.60215945	      2.72532292	    -17.61049398	     24.52928191	     16.95928348	      0.00000000	    -64.50136841	     -0.52387180	    -11.20035024
      5.38500000	     35.49002360	      9.52640629	      8.97940805	     -0.19534649	      0.65275102	     -0.29793857	    -14.89912783	     -4.71337360	    -16.30099750	     -1.70344338	     10.18957228	      3.82589035	      0.00000000	    -50.37495786	      0.17981035	      2.81359527	    -18.37382171	     23.94178505	     17.04155699	      0.00000000	    -64.51424753	     -0.22086289	    -11.21770520
      5.39000000	     35.71369195	      9.24890014	      9.04904454	     -0.18939870	      0.65285687	     -0.29766690	    -14.95905737	     -4.36505919	    -16.01199132	     -2.83592663	      9.73760852	      3.66641268	      0.00000000	    -50.67242605	     -0.25226085	      2.90352150	    -19.25652659	     23.31085169	     16.85926306	      0.00000000	    -64.63352086	      0.12011209	    -11.09031547
      5.39500000	     35.85384223	      9.02833485	      9.18193462	     -0.18326074	      0.65302026	     -0.29737423	    -14.97966437	     -4.06588542	    -15.82494888	     -3.99987975	      9.55031525	      3.72854884	      0.00000000	    -50.84879461	     -0.69818948	      2.93510036	    -20.20257684	     22.50976666	     16.92151267	      0.00000000	    -64.64263670	      0.44969991	    -11.08686373
      5.40000000	     36.08312310	      8.67746785	      9.20850208	     -0.17714018	      0.65327739	     -0.29707604	    -15.08156150	     -3.62708666	    -15.45629717	     -5.11116230	      9.04119544	      3.49625915	      0.00000000	    -51.06708748	     -1.13022681	      2.90459614	    -21.23301085	     21.57179638	     16.62947099	      0.00000000	    -64.73237673	      0.79189404	    -10.83637589
      5.40500000	     36.26479286	      8.34705415	      9.21714657	     -0.17101099	      0.65357405	     -0.29671556	    -15.14059194	     -3.22362167	    -15.13502629	     -6.23911223	      8.63074872	      3.48926116	      0.00000000	    -51.17125419	     -1.53722906	      2.74805064	    -22.36324654	     20.54941614	     16.55795327	      0.00000000	    -64.77994079	      1.10095501	    -10.65636701
      5.41000000	     36.41375719	      8.06829704	      9.29579916	     -0.16489651	      0.65396254	     -0.29635453	    -15.21813933	     -2.85365277	    -14.95536522	     -7.32939347	      8.23963957	      3.63104179	      0.00000000	    -51.15395138	     -1.96071850	      2.62102378	    -23.62260727	     19.41532960	     16.56900307	      0.00000000	    -64.81333085	      1.42110798	    -10.61075196
      5.41500000	     36.53782621	      7.69871565	      9.28874242	     -0.15870395	      0.65435416	     -0.29602789	    -15.26688986	     -2.41577393	    -14.63834518	     -8.38345676	      7.88297324	      3.66131099	      0.00000000	    -51.06273640	     -2.34311321	      2.38738734	    -24.96057600	     18.13674815	     16.32630409	      0.00000000	    -64.79413538	      1.73791487	    -10.36329518
      5.42000000	     36.62776364	      7.34789237	      9.25869648	     -0.15253029	      0.65479963	     -0.29561605	    -15.30270916	     -2.00234825	    -14.31021007	     -9.40402711	      7.55902648	      3.76352554	      0.00000000	    -50.86675063	     -2.70280532	      2.06328232	    -26.38338496	     16.71185319	     16.16962583	      0.00000000	    -64.75993966	      1.99945756	    -10.15071221
      5.42500000	     36.74476773	      7.05785120	      9.32672920	     -0.14633869	      0.65535636	     -0.29518813	    -15.47237851	     -1.59619499	    -14.15715989	    -10.29032432	      7.28088703	      3.92237059	      0.00000000	    -50.62510917	     -3.12855033	      1.75273763	    -27.88904098	     15.14682686	     16.13592377	      0.00000000	    -64.75148157	      2.28549302	    -10.08007039
      5.43000000	     36.74932038	      6.67782673	      9.18717408	     -0.14017973	      0.65582802	     -0.29475214	    -15.44337501	     -1.19968609	    -13.72777461	    -11.24132840	      7.11052991	      4.02706746	      0.00000000	    -50.21645205	     -3.38822624	      1.30483578	    -29.45331739	     13.43079926	     15.80650024	      0.00000000	    -64.63743895	      2.47901208	     -9.76649237
      5.43500000	     36.84411938	      6.36886647	      9.26322278	     -0.13393973	      0.65646722	     -0.29429750	    -15.68611872	     -0.75476036	    -13.63306318	    -11.96050503	      6.94527291	      4.15926137	      0.00000000	    -49.84123409	     -3.84661051	      0.87739722	    -31.05280284	     11.60523860	     15.65589992	      0.00000000	    -64.59613104	      2.77014146	     -9.68997029
      5.44000000	     36.88960959	      6.01768962	      9.23354122	     -0.12777409	      0.65706586	     -0.29390525	    -15.84780207	     -0.32545813	    -13.40337836	    -12.69432375	      6.88583932	      4.28481790	      0.00000000	    -49.36122109	     -4.19958208	      0.41132998	    -32.69580536	      9.66869274	     15.13137366	      0.00000000	    -64.51873572	      3.02758447	     -9.47135696
      5.44500000	     36.94922636	      5.72029477	      9.27160834	     -0.12152020	      0.65775951	     -0.29340107	    -16.14999926	      0.10858206	    -13.28100094	    -13.23931354	      6.90324619	      4.38497007	      0.00000000	    -48.85445263	     -4.63352900	     -0.09787773	    -34.33466899	      7.60767822	     14.88381107	      0.00000000	    -64.43870699	      3.26530499	     -9.35610350
      5.45000000	     36.95662805	      5.37750569	      9.18211024	     -0.11544791	      0.65839016	     -0.29298942	    -16.33786285	      0.50942919	    -13.03858841	    -13.83975766	      7.00390652	      4.47642038	      0.00000000	    -48.23478991	     -4.93226668	     -0.64964639	    -36.01330762	      5.51066238	     14.09575255	      0.00000000	    -64.34770964	      3.47081454	     -9.12297487
      5.45500000	     36.90524546	      5.07355173	      9.08156270	     -0.10933311	      0.65903563	     -0.29244316	    -16.52494579	      0.88243872	    -12.74155893	    -14.34492368	      7.22877333	      4.55495406	      0.00000000	    -47.51649806	     -5.22433967	     -1.22258017	    -37.67971539	      3.35119504	     13.43585799	      0.00000000	    -64.19437263	      3.59233135	     -8.89566663
